<?xml version="1.0" encoding="UTF-8"?>
<svg xmlns="http://www.w3.org/2000/svg" xmlns:xlink="http://www.w3.org/1999/xlink" width="100px" height="100px" viewBox="0 0 100 100" version="1.1">
<g id="surface1">
<path style=" stroke:none;fill-rule:nonzero;fill:currentColor;fill-opacity:1;" d="M 90.671875 80.667969 C 89.992188 80.230469 89.085938 80.425781 88.648438 81.105469 C 86.609375 84.265625 82.769531 85.507812 79.363281 84.375 C 80.28125 83.722656 81.140625 82.984375 81.925781 82.167969 C 82.488281 81.585938 82.472656 80.65625 81.890625 80.097656 C 81.308594 79.535156 80.382812 79.550781 79.820312 80.132812 C 78.84375 81.144531 77.734375 82.015625 76.53125 82.71875 C 76.011719 82.25 75.550781 81.710938 75.160156 81.105469 C 74.910156 80.722656 74.484375 80.460938 74 80.4375 C 73.472656 80.410156 72.972656 80.675781 72.695312 81.105469 C 69.53125 86.011719 62.367188 86.007812 59.207031 81.105469 C 58.945312 80.703125 58.484375 80.4375 57.972656 80.4375 C 57.460938 80.4375 57.003906 80.703125 56.746094 81.105469 C 53.640625 85.914062 46.542969 86.109375 43.246094 81.09375 C 42.984375 80.695312 42.527344 80.4375 42.019531 80.4375 C 41.511719 80.4375 41.050781 80.703125 40.792969 81.105469 C 37.6875 85.917969 30.589844 86.109375 27.296875 81.09375 C 27.023438 80.683594 26.5625 80.4375 26.066406 80.4375 C 25.558594 80.4375 25.101562 80.703125 24.839844 81.105469 C 24.449219 81.710938 23.988281 82.25 23.46875 82.71875 C 19.777344 80.558594 17.121094 76.878906 16.238281 72.742188 C 20.804688 72.742188 80.65625 72.742188 83.761719 72.742188 C 83.617188 73.40625 83.429688 74.066406 83.199219 74.710938 C 82.925781 75.472656 83.320312 76.3125 84.082031 76.585938 C 84.84375 76.859375 85.683594 76.464844 85.957031 75.703125 C 86.335938 74.652344 86.613281 73.566406 86.789062 72.472656 C 87.015625 71.074219 85.929688 69.8125 84.515625 69.8125 L 79.25 69.8125 L 51.464844 5.984375 L 51.464844 1.464844 C 51.464844 0.65625 50.808594 0 50 0 C 49.191406 0 48.535156 0.65625 48.535156 1.464844 L 48.535156 5.230469 C 29.265625 11.980469 18.621094 35.945312 17.984375 58.230469 C 17.949219 59.476562 18.527344 60.625 19.550781 61.351562 L 19.550781 69.808594 L 15.484375 69.808594 C 14.808594 69.808594 14.167969 70.105469 13.730469 70.621094 C 13.292969 71.132812 13.101562 71.808594 13.207031 72.472656 C 13.984375 77.3125 16.65625 81.5625 20.632812 84.375 C 17.230469 85.503906 13.390625 84.265625 11.351562 81.105469 C 10.914062 80.425781 10.003906 80.230469 9.324219 80.667969 C 8.644531 81.109375 8.449219 82.015625 8.890625 82.695312 C 12.773438 88.714844 21.238281 89.417969 26.070312 84.265625 C 30.382812 88.863281 37.707031 88.867188 42.023438 84.265625 C 46.335938 88.863281 53.660156 88.867188 57.976562 84.265625 C 62.289062 88.863281 69.613281 88.867188 73.929688 84.265625 C 78.773438 89.429688 87.234375 88.703125 91.109375 82.695312 C 91.550781 82.015625 91.355469 81.109375 90.671875 80.667969 Z M 51.464844 13.324219 L 76.054688 69.808594 L 51.464844 69.808594 C 51.464844 66.117188 51.464844 15 51.464844 13.324219 Z M 48.535156 69.808594 L 22.480469 69.808594 L 22.480469 62.039062 L 48.535156 62.039062 Z M 48.535156 8.355469 L 48.535156 17.253906 L 35.941406 17.253906 C 39.714844 13.183594 44 10.140625 48.535156 8.355469 Z M 33.453125 20.183594 L 48.535156 20.183594 L 48.535156 27.597656 L 28.664062 27.597656 C 30.167969 24.78125 31.792969 22.316406 33.453125 20.183594 Z M 23.453125 40.867188 L 33.027344 40.867188 C 33.835938 40.867188 34.492188 40.214844 34.492188 39.402344 C 34.492188 38.59375 33.835938 37.9375 33.027344 37.9375 L 24.304688 37.9375 C 25.125 35.375 26.09375 32.898438 27.199219 30.527344 L 48.535156 30.527344 L 48.535156 37.9375 L 39.863281 37.9375 C 39.054688 37.9375 38.398438 38.59375 38.398438 39.402344 C 38.398438 40.210938 39.054688 40.867188 39.863281 40.867188 L 48.535156 40.867188 L 48.535156 48.28125 L 21.855469 48.28125 C 22.265625 45.761719 22.796875 43.277344 23.453125 40.867188 Z M 21.4375 51.210938 L 48.535156 51.210938 L 48.535156 59.109375 L 21.699219 59.109375 C 21.257812 59.109375 20.902344 58.746094 20.914062 58.3125 C 20.980469 55.910156 21.160156 53.539062 21.4375 51.210938 Z M 21.4375 51.210938 "/>
<path style=" stroke:none;fill-rule:nonzero;fill:currentColor;fill-opacity:1;" d="M 74.722656 92.953125 C 74.042969 92.515625 73.136719 92.710938 72.695312 93.390625 C 69.59375 98.199219 62.496094 98.398438 59.199219 93.378906 C 58.929688 92.96875 58.46875 92.722656 57.972656 92.722656 C 57.476562 92.722656 57.011719 92.976562 56.746094 93.390625 C 53.640625 98.203125 46.542969 98.394531 43.246094 93.378906 C 42.984375 92.976562 42.527344 92.722656 42.023438 92.722656 C 41.511719 92.722656 41.054688 92.988281 40.792969 93.390625 C 37.628906 98.296875 30.464844 98.292969 27.304688 93.390625 C 26.863281 92.710938 25.957031 92.515625 25.277344 92.953125 C 24.597656 93.394531 24.402344 94.300781 24.839844 94.980469 C 28.726562 101 37.1875 101.707031 42.023438 96.550781 C 46.335938 101.148438 53.660156 101.152344 57.976562 96.550781 C 62.800781 101.695312 71.265625 101.015625 75.160156 94.980469 C 75.597656 94.300781 75.402344 93.394531 74.722656 92.953125 Z M 74.722656 92.953125 "/>
</g>
</svg>
