<svg xmlns="http://www.w3.org/2000/svg" version="1.1" xmlns:xlink="http://www.w3.org/1999/xlink" width="512" height="512"><svg xmlns="http://www.w3.org/2000/svg" version="1.1" xmlns:xlink="http://www.w3.org/1999/xlink" width="512" height="512"><svg version="1.1" id="Capa_1" xmlns="http://www.w3.org/2000/svg" xmlns:xlink="http://www.w3.org/1999/xlink" x="0px" y="0px" viewBox="0 0 512 512" style="enable-background:new 0 0 512 512;" xml:space="preserve">
<g>
	<g>
		<path d="M464.25,413.027c-3.48-2.245-8.124-1.244-10.37,2.235c-10.44,16.18-30.107,22.531-47.539,16.731
			c4.696-3.341,9.095-7.115,13.128-11.294c2.876-2.98,2.792-7.73-0.188-10.606c-2.981-2.878-7.73-2.792-10.606,0.188
			c-5.005,5.186-10.67,9.632-16.836,13.243c-2.655-2.401-5.027-5.162-7.028-8.261c-1.265-1.956-3.46-3.298-5.931-3.418
			c-2.696-0.136-5.255,1.214-6.675,3.418c-16.208,25.123-52.879,25.091-69.068,0c-1.335-2.07-3.705-3.432-6.323-3.429
			c-2.611,0.01-4.955,1.367-6.283,3.429c-15.889,24.627-52.232,25.625-69.108-0.055c-1.353-2.058-3.692-3.377-6.283-3.373
			c-2.607,0.01-4.955,1.373-6.282,3.429c-15.889,24.627-52.232,25.625-69.108-0.056c-1.383-2.104-3.744-3.377-6.284-3.373
			c-2.598,0.011-4.944,1.36-6.283,3.429c-1.997,3.096-4.368,5.854-7.021,8.255c-18.894-11.065-32.508-29.903-37.025-51.088
			c23.379,0,329.833,0,345.718,0c-0.725,3.407-1.688,6.789-2.877,10.091c-1.402,3.897,0.62,8.195,4.518,9.598
			c3.898,1.4,8.195-0.619,9.597-4.517c1.938-5.384,3.375-10.948,4.272-16.537c1.148-7.157-4.407-13.635-11.64-13.635H405.76
			L263.498,30.633V7.501c0-4.143-3.358-7.501-7.501-7.501c-4.142,0-7.501,3.357-7.501,7.501v19.285
			C149.844,61.347,95.336,184.04,92.082,298.141c-0.181,6.369,2.779,12.265,8.015,15.988v43.298H79.27
			c-3.458,0-6.73,1.511-8.975,4.145c-2.24,2.628-3.211,6.088-2.665,9.49c3.975,24.772,17.657,46.528,38.012,60.936
			c-17.429,5.791-37.088-0.563-47.523-16.736c-2.246-3.48-6.89-4.482-10.37-2.235c-3.48,2.245-4.481,6.889-2.236,10.369
			c19.892,30.83,63.226,34.432,87.976,8.053c22.075,23.527,59.578,23.549,81.674,0c22.075,23.527,59.579,23.549,81.674,0
			c22.075,23.528,59.579,23.548,81.674,0c24.8,26.432,68.124,22.715,87.976-8.054C468.732,419.915,467.731,415.272,464.25,413.027z
			 M263.501,68.212l125.902,289.215H263.501C263.501,338.515,263.501,76.804,263.501,68.212z M248.499,357.427H115.097v-39.793
			h133.402V357.427z M248.5,42.781v45.563h-64.477C203.348,67.496,225.286,51.918,248.5,42.781z M171.28,103.345h77.219v37.95
			H146.758C154.461,126.884,162.773,114.261,171.28,103.345z M120.079,209.248h49.02c4.142,0,7.501-3.357,7.501-7.501
			c0-4.143-3.358-7.501-7.501-7.501h-44.667c4.21-13.128,9.16-25.805,14.821-37.95H248.5v37.95h-44.397
			c-4.142,0-7.501,3.357-7.501,7.501c0,4.143,3.358,7.501,7.501,7.501H248.5v37.95H111.908
			C113.993,234.295,116.73,221.581,120.079,209.248z M109.764,262.2h138.735v40.433H111.093v-0.001c-2.249,0-4.08-1.845-4.016-4.063
			C107.428,286.263,108.334,274.126,109.764,262.2z"></path>
	</g>
</g>
<g>
	<g>
		<path d="M382.577,475.926c-3.481-2.246-8.124-1.244-10.369,2.235c-15.885,24.619-52.228,25.631-69.108-0.056
			c-1.384-2.105-3.742-3.374-6.276-3.373c-2.554,0.006-4.922,1.313-6.289,3.429c-15.901,24.644-52.242,25.611-69.109-0.056
			c-1.355-2.062-3.692-3.374-6.273-3.373c-2.609,0.006-4.962,1.371-6.293,3.429c-16.207,25.121-52.88,25.09-69.068,0
			c-2.246-3.481-6.891-4.481-10.37-2.235c-3.48,2.245-4.481,6.889-2.236,10.369c19.888,30.822,63.219,34.437,87.976,8.053
			c22.073,23.525,59.578,23.548,81.674,0c24.702,26.327,68.036,22.85,87.976-8.053C387.059,482.814,386.057,478.171,382.577,475.926
			z"></path>
	</g>
</g>
<g>
</g>
<g>
</g>
<g>
</g>
<g>
</g>
<g>
</g>
<g>
</g>
<g>
</g>
<g>
</g>
<g>
</g>
<g>
</g>
<g>
</g>
<g>
</g>
<g>
</g>
<g>
</g>
<g>
</g>
</svg></svg><style>@media (prefers-color-scheme: light) { :root { filter: none; } }
@media (prefers-color-scheme: dark) { :root { filter: invert(100%); } }
</style></svg>